HIERARCHY
ROOT root     
{
	OFFSET 0.0000 0.0000 0.0000
	CHANNELS 6 Xposition Yposition Zposition Zrotation Yrotation Xrotation
	JOINT pelvis   
	{
		OFFSET 0.0000 0.0000 0.0000
		CHANNELS 3 Zrotation Yrotation Xrotation
		JOINT thorax   
		{
			OFFSET 0.0000 23.0750 -5.0000
			CHANNELS 3 Zrotation Yrotation Xrotation
			JOINT rclavicle
			{
				OFFSET 0.0000 28.0009 0.0000
				CHANNELS 3 Zrotation Yrotation Xrotation
				JOINT rhumerus 
				{
					OFFSET -18.5725 5.5939 0.0000
					CHANNELS 3 Zrotation Yrotation Xrotation
					JOINT rradius  
					{
						OFFSET -24.8459 0.0000 0.0000
						CHANNELS 3 Zrotation Yrotation Xrotation
						JOINT rhand    
						{
							OFFSET -24.5477 0.0000 0.0000
							CHANNELS 3 Zrotation Yrotation Xrotation
							End Site
							{
								OFFSET -8.1826 0.0000 0.0000
							}
						}
					}
				}
			}
			JOINT lclavicle
			{
				OFFSET 0.0000 28.0009 0.0000
				CHANNELS 3 Zrotation Yrotation Xrotation
				JOINT lhumerus 
				{
					OFFSET 18.5725 5.5939 0.0000
					CHANNELS 3 Zrotation Yrotation Xrotation
					JOINT lradius  
					{
						OFFSET 24.8459 0.0000 0.0000
						CHANNELS 3 Zrotation Yrotation Xrotation
						JOINT lhand    
						{
							OFFSET 24.5477 0.0000 0.0000
							CHANNELS 3 Zrotation Yrotation Xrotation
							End Site
							{
								OFFSET 8.1826 0.0000 0.0000
							}
						}
					}
				}
			}
			JOINT head     
			{
				OFFSET 0.0000 35.2030 0.0000
				CHANNELS 3 Zrotation Yrotation Xrotation
				End Site
				{
					OFFSET 0.0000 11.7343 0.0000
				}
			}
		}
		JOINT rfemur   
		{
			OFFSET -8.2817 0.0000 0.0000
			CHANNELS 3 Zrotation Yrotation Xrotation
			JOINT rtibia   
			{
				OFFSET 0.0000 -43.3627 0.0000
				CHANNELS 3 Zrotation Yrotation Xrotation
				JOINT rfoot    
				{
					OFFSET 0.0000 -38.2947 0.0000
					CHANNELS 3 Zrotation Yrotation Xrotation
					JOINT rtoes    
					{
						OFFSET 0.0000 0.0000 16.6054
						CHANNELS 3 Zrotation Yrotation Xrotation
						End Site
						{
							OFFSET 0.0000 0.0000 5.5351
						}
					}
				}
			}
		}
		JOINT lfemur   
		{
			OFFSET 8.2817 0.0000 0.0000
			CHANNELS 3 Zrotation Yrotation Xrotation
			JOINT ltibia   
			{
				OFFSET 0.0000 -43.3627 0.0000
				CHANNELS 3 Zrotation Yrotation Xrotation
				JOINT lfoot    
				{
					OFFSET 0.0000 -38.2947 0.0000
					CHANNELS 3 Zrotation Yrotation Xrotation
					JOINT ltoes    
					{
						OFFSET 0.0000 0.0000 16.6054
						CHANNELS 3 Zrotation Yrotation Xrotation
						End Site
						{
							OFFSET 0.0000 0.0000 5.5351
						}
					}
				}
			}
		}
	}
}
MOTION
Frames: 11
Frame Time: .0333333
19.571 76.788 -3.3641 135.635 -86.2408 -99.2426 0 -0 0 2.84286 -8.13571 12.8841 21.8744 -17.1576 7.27909e-05 51.8831 -3.4757 11.9093 -180 78.9453 -180 -13.4817 1.70102 -0.201101 -12.8212 17.977 -1.07271e-05 -60.3758 17.2117 4.39114 6.12793e-06 -87.6163 -6.38936e-06 1.40438 2.81374 0.0345002 3.69083 1.07769 -28.0744 10.4457 -8.13726 -69.198 -0 -0 57.5065 -3.92789e-05 -6.18648 -11.9414 1.28486 -1.06948e-05 -44.5409 -7.41784 9.41053 -79.9051 -0 -0 69.654 -5.59173e-05 18.8777 8.90156 3.0289 -2.24026e-06 -46.7805 
19.271 76.855 -3.4944 133.521 -86.2342 -97.9041 0 -0 0 2.81195 -8.32804 12.7674 21.9454 -17.4124 -7.29552e-05 51.7597 -3.47935 12.2157 -180 78.8784 -180 -13.1785 1.73252 -0.200098 -12.6363 18.0952 2.33103e-05 -60.3966 17.9119 4.8463 0 -86.5766 0 1.30994 2.78811 0.0319009 3.56222 1.04281 -27.3197 10.4502 -8.50631 -68.1906 -0 -0 57.4393 1.31061e-06 -6.12627 -12.0912 1.28787 -1.71085e-05 -44.9459 -7.50596 9.3167 -80.242 -0 -0 71.4008 -2.92866e-05 19.5516 10.7239 3.78088 -3.26792e-05 -45.915 
18.97 76.936 -3.6096 131.486 -86.181 -96.6618 0 -0 0 2.70549 -8.49059 12.6835 22.0087 -17.667 1.82572e-05 51.6825 -3.4931 12.5025 -180 78.7874 -180 -12.8913 1.76183 -0.199014 -12.4432 18.2086 -4.43533e-05 -60.4239 18.6094 5.27806 -4.09779e-06 -85.6178 3.79572e-06 1.24386 2.74157 0.0298014 3.43533 1.00592 -26.5419 10.3887 -8.87667 -67.1558 -0 -0 57.3414 -1.96964e-05 -6.07391 -12.2166 1.29005 1.49833e-05 -45.3605 -7.74981 9.25413 -80.6181 -0 -0 73.1859 -3.10089e-05 20.1129 12.503 4.53303 3.21807e-05 -44.628 
18.671 77.033 -3.7106 129.594 -86.0825 -95.5685 0 -0 0 2.52928 -8.62258 12.6292 22.0635 -17.9181 -1.04233e-05 51.65 -3.5199 12.7751 -180 78.6742 -180 -12.6274 1.78812 -0.1979 -12.2387 18.3194 8.50045e-05 -60.4613 19.2992 5.68344 0 -84.7124 0 1.20641 2.67374 0.0281996 3.31347 0.965791 -25.752 10.2554 -9.22774 -66.1012 -0 -0 57.2108 -2.87923e-05 -6.04468 -12.3146 1.2938 -6.12744e-06 -45.7841 -8.13982 9.21891 -81.0392 -0 -0 74.9912 2.93661e-05 20.5491 14.1884 5.24968 2.11009e-05 -43.026 
18.377 77.144 -3.799 127.866 -85.9423 -94.6382 0 -0 0 2.29656 -8.72684 12.6013 22.1105 -18.1605 -3.70028e-05 51.6528 -3.55771 13.0327 -180 78.543 -180 -12.3956 1.81245 -0.196891 -12.027 18.4289 3.45043e-05 -60.5101 19.9807 6.05412 2.04684e-06 -83.869 -2.59787e-06 1.19556 2.58629 0.026999 3.19784 0.919691 -24.969 10.0537 -9.54708 -65.0349 -0 -0 57.0447 -1.71591e-05 -6.05116 -12.3829 1.3023 3.9502e-06 -46.2062 -8.66001 9.20025 -81.5163 -0 -0 76.8024 5.46634e-05 20.8553 15.7346 5.89825 2.25871e-05 -41.2512 
18.094 77.27 -3.8763 126.285 -85.7673 -93.8387 0 -0 0 2.02235 -8.80787 12.5953 22.1518 -18.3913 7.96486e-05 51.681 -3.60829 13.2817 -180 78.3894 -180 -12.1964 1.83786 -0.196397 -11.8104 18.5363 2.73991e-05 -60.5736 20.6544 6.38485 0 -83.0994 0 1.20672 2.48245 0.0261009 3.08893 0.864684 -24.2068 9.7893 -9.82247 -63.968 -0 -0 56.8403 2.11936e-05 -6.10388 -12.419 1.31737 -1.97968e-05 -46.6109 -9.29049 9.18261 -82.0619 -0 -0 78.6018 4.06821e-05 21.0289 17.1203 6.45685 -3.49733e-06 -39.501 
17.826 77.41 -3.9441 124.75 -85.5891 -93.0572 0 -0 0 1.72457 -8.8724 12.6068 22.1893 -18.6103 4.02639e-05 51.7196 -3.66908 13.5179 -180 78.208 -180 -12.0257 1.86837 -0.196795 -11.5938 18.6399 -2.83113e-06 -60.6515 21.3176 6.67559 -1.71894e-06 -82.4073 1.50502e-06 1.23324 2.36692 0.025501 2.98653 0.797902 -23.4842 9.47395 -10.0469 -62.9154 -0 -0 56.5942 -3.12377e-05 -6.20996 -12.4185 1.3405 6.42767e-06 -46.9909 -10.0093 9.14555 -82.6948 -0 -0 80.371 5.69436e-05 21.0748 18.3453 6.91573 -1.31792e-05 -37.9848 
17.577 77.563 -4.0035 123.207 -85.4021 -92.2304 0 -0 0 1.42122 -8.92762 12.6322 22.2269 -18.8162 -4.17175e-05 51.754 -3.7404 13.7442 -180 78.0004 -180 -11.8772 1.90829 -0.198506 -11.3819 18.7415 1.28947e-05 -60.746 21.97 6.92319 -1.59947e-06 -81.7969 1.38547e-06 1.2679 2.24543 0.0249002 2.89035 0.716516 -22.8169 9.12179 -10.2193 -61.8897 -0 -0 56.3057 4.91162e-06 -6.3723 -12.3824 1.37177 2.30535e-06 -47.3344 -10.7943 9.06618 -83.4347 -0 -0 82.0977 2.39938e-05 20.9997 19.4273 7.27589 -3.34951e-05 -36.8809 
17.352 77.728 -4.055 121.532 -85.2349 -91.2184 0 -0 0 1.12136 -8.97971 12.6724 22.2709 -19.0059 6.61571e-05 51.774 -3.82144 13.9551 -180 77.7496 -180 -11.7393 1.96199 -0.201692 -11.1764 18.8408 6.85662e-05 -60.8544 22.6067 7.13007 -1.50992e-06 -81.2768 1.29586e-06 1.30351 2.12416 0.0241998 2.8032 0.618999 -22.2184 8.74527 -10.3456 -60.9039 -0 -0 55.9756 1.81482e-05 -6.58908 -12.3077 1.41036 -9.58879e-06 -47.6663 -11.6288 8.92264 -84.2947 -0 -0 83.7625 -7.97827e-05 20.798 20.3983 7.54158 4.63133e-05 -36.235 
17.155 77.904 -4.1004 119.612 -85.0858 -89.8994 0 -0 0 0.853819 -9.03791 12.7174 22.3198 -19.1863 2.17608e-05 51.7688 -3.91264 14.1492 -180 77.4585 -180 -11.6048 2.03258 -0.206594 -10.9864 18.9323 3.11432e-05 -60.9763 23.2308 7.29556 -2.04197e-06 -80.8368 1.73912e-06 1.33219 2.01036 0.0233994 2.71822 0.500113 -21.7004 8.37158 -10.4398 -59.9757 -0 -0 55.6079 -2.07726e-05 -6.85173 -12.1973 1.45434 1.76289e-05 -47.9323 -12.48 8.68345 -85.294 -0 -0 85.3382 0.000180013 20.4764 21.3338 7.73592 -4.5447e-06 -36.314 
16.989 78.088 -4.1391 117.369 -84.9471 -88.1949 0 -0 0 0.618968 -9.10558 12.7708 22.3776 -19.3565 -0.00016749 51.7282 -4.01577 14.321 -180 77.1231 -180 -11.4636 2.1219 -0.213 -10.8099 19.016 5.85843e-05 -61.1084 23.8348 7.42856 2.36211e-06 -80.4996 -2.79045e-06 1.34831 1.90985 0.0225009 2.63989 0.359116 -21.2683 8.01233 -10.5201 -59.1177 -0 -0 55.2083 3.98431e-05 -7.14905 -12.0547 1.50043 1.85157e-05 -48.1593 -13.3338 8.33005 -86.4323 -0 -0 86.7974 3.00612e-05 20.0196 22.2866 7.8673 -1.03132e-08 -37.0493 
